Coordinates
version=1
nRows=27
nColumns=12
inDegrees=yes

Units are S.I. units (second, meters, Newtons, ...)
Angles are in degrees

endheader
time	SC_y	SC_z	SC_x	AC_y	AC_z	AC_x	GH_y	GH_z	GH_yy	EL_x	PS_y
       0.0              -30.01         -1.635          80.19          68.84          -12.0         -13.52          53.25          6.863         -128.5           80.7          39.19
   0.04374              -30.02          -1.63          80.18          68.84         -11.99         -13.52          53.27          6.868         -128.5           80.7           39.2
   0.08748              -30.02         -1.624          80.17          68.83         -11.99         -13.51          53.28          6.872         -128.5           80.7          39.22
    0.1312              -30.02         -1.618          80.16          68.83         -11.99         -13.51           53.3          6.877         -128.5           80.7          39.23
     0.175              -30.02         -1.612          80.15          68.82         -11.98         -13.51          53.32          6.883         -128.5           80.7          39.25
    0.2187              -30.02         -1.606          80.13          68.82         -11.98          -13.5          53.34          6.888         -128.5           80.7          39.26
    0.2624              -30.02         -1.599          80.12          68.81         -11.97          -13.5          53.36          6.894         -128.5           80.7          39.28
    0.3062              -30.02         -1.591          80.11          68.81         -11.97          -13.5          53.38          6.901         -128.5           80.7           39.3
    0.3499              -30.02         -1.583          80.09           68.8         -11.97         -13.49           53.4          6.908         -128.5           80.7          39.32
    0.3937              -30.02         -1.574          80.07          68.79         -11.96         -13.49          53.43          6.915         -128.5           80.7          39.34
    0.4374              -30.02         -1.565          80.05          68.78         -11.96         -13.48          53.46          6.923         -128.5           80.7          39.36
    0.4811              -30.02         -1.555          80.04          68.77         -11.95         -13.48          53.49          6.932         -128.5           80.7          39.39
    0.5249              -30.02         -1.544          80.01          68.76         -11.94         -13.47          53.52          6.941         -128.5           80.7          39.42
    0.5686              -30.02         -1.533          79.99          68.75         -11.94         -13.47          53.55          6.951         -128.4           80.7          39.44
    0.6124              -30.02          -1.52          79.97          68.74         -11.93         -13.46          53.59          6.962         -128.4           80.7          39.48
    0.6561              -30.02         -1.507          79.94          68.73         -11.92         -13.46          53.63          6.973         -128.4           80.7          39.51
    0.6998              -30.03         -1.492          79.91          68.72         -11.91         -13.45          53.67          6.986         -128.4           80.7          39.55
    0.7436              -30.03         -1.476          79.88           68.7         -11.91         -13.44          53.72            7.0         -128.4           80.7          39.59
    0.7873              -30.03         -1.458          79.85          68.69          -11.9         -13.43          53.77          7.015         -128.4           80.7          39.63
    0.8311              -30.03         -1.439          79.81          68.67         -11.89         -13.42          53.83          7.032         -128.4           80.7          39.68
    0.8748              -30.03         -1.417          79.77          68.65         -11.87         -13.41          53.89           7.05         -128.3           80.7          39.73
    0.9185              -30.03         -1.394          79.72          68.63         -11.86          -13.4          53.96           7.07         -128.3           80.7          39.79
    0.9623              -30.04         -1.368          79.67          68.61         -11.85         -13.39          54.04          7.092         -128.3           80.7          39.85
     1.006              -30.04          -1.34          79.61          68.58         -11.83         -13.38          54.12          7.117         -128.3          80.69          39.92
      1.05              -30.04         -1.308          79.55          68.56         -11.81         -13.36          54.22          7.144         -128.2          80.69           40.0
     1.094              -30.04         -1.273          79.48          68.52         -11.79         -13.35          54.32          7.175         -128.2          80.69          40.09
     1.137              -30.05         -1.233          79.41          68.49         -11.77         -13.33          54.44          7.209         -128.1          80.69          40.19
